<svg width="161" height="32" viewBox="0 0 161 32" fill="none" xmlns="http://www.w3.org/2000/svg">
<path fill-rule="evenodd" clip-rule="evenodd" d="M97.4753 5.81116C105.169 5.81116 110.752 11.3165 110.752 18.9023V20.3381H88.2339C88.8237 25.0822 92.4911 28.2395 97.4753 28.2395C100.565 28.2395 103.076 27.1788 104.69 25.2212C106.26 23.3039 108.371 23.2675 109.849 24.0149L109.697 24.3784C107.738 29.0762 103.054 31.994 97.4753 31.994C89.7248 31.994 84.0996 26.4876 84.0996 18.9023C84.0996 11.3165 89.7248 5.81116 97.4753 5.81116ZM97.4753 9.56575C92.7491 9.56575 89.2155 12.3446 88.3601 16.6828H106.539C105.662 12.3441 102.148 9.56575 97.4753 9.56575Z" fill="#020617"/>
<path fill-rule="evenodd" clip-rule="evenodd" d="M59.0236 5.81073C66.8695 5.81073 72.3497 11.2548 72.3497 19.0497L72.3486 31.9942C70.0988 31.9942 68.599 30.4922 68.599 28.2407V26.5893C66.6325 30.0019 62.9777 31.9942 58.5342 31.9942C51.0675 31.9942 45.6484 26.5501 45.6484 19.0497C45.6484 11.2548 51.148 5.81073 59.0236 5.81073ZM59.0236 9.56588C53.5301 9.56588 49.6929 13.4043 49.6929 18.9025C49.6929 24.4 53.5301 28.2396 59.0236 28.2396C64.5171 28.2396 68.3538 24.4 68.3538 18.9025C68.3538 13.4043 64.5171 9.56588 59.0236 9.56588Z" fill="#020617"/>
<path fill-rule="evenodd" clip-rule="evenodd" d="M13.4748 5.81073C21.3206 5.81073 26.8009 11.2548 26.8009 19.0497L26.7998 31.9942C24.5499 31.9942 23.0502 30.4922 23.0502 28.2407V26.5893C21.0836 30.0019 17.4289 31.9942 12.9853 31.9942C5.51868 31.9942 0.0996094 26.5501 0.0996094 19.0497C0.0996094 11.2548 5.59915 5.81073 13.4748 5.81073ZM13.4748 9.56588C7.9813 9.56588 4.14407 13.4043 4.14407 18.9025C4.14407 24.4 7.9813 28.2396 13.4748 28.2396C18.9683 28.2396 22.8049 24.4 22.8049 18.9025C22.8049 13.4043 18.9683 9.56588 13.4748 9.56588Z" fill="#020617"/>
<path d="M76.0996 4C76.0996 1.79086 77.8905 0 80.0996 0V0V28C80.0996 30.2091 78.3087 32 76.0996 32V32V4Z" fill="#020617"/>
<path d="M34.5 7.2H43.3C43.3 9.40914 41.5091 11.2 39.3 11.2H34.5L34.4961 22.2414C34.4962 26.2099 36.5758 28.3953 40.3523 28.3953C41.8498 28.3953 43.0806 28.0515 44.0203 27.3891C44.5588 32.3382 38.8148 32.0877 37.8852 31.9305C33.2141 31.0502 30.5001 27.5673 30.5 22.2414V4C30.5 1.79086 32.2909 0 34.5 0V7.2Z" fill="#020617"/>
<path fill-rule="evenodd" clip-rule="evenodd" d="M136.675 5.81653C144.521 5.81653 150.001 11.2606 150.001 19.0555L150 32C147.75 32 146.25 30.498 146.25 28.2465V26.5951C144.284 30.0077 140.629 32 136.186 32C128.719 32 123.3 26.5559 123.3 19.0555C123.3 11.2606 128.799 5.81653 136.675 5.81653ZM136.675 9.57168C131.181 9.57168 127.344 13.4101 127.344 18.9083C127.344 24.4058 131.181 28.2454 136.675 28.2454C142.168 28.2454 146.005 24.4058 146.005 18.9083C146.005 13.4101 142.168 9.57168 136.675 9.57168Z" fill="#020617"/>
<path d="M153.747 16.4C153.747 15.2955 154.643 14.4 155.747 14.4V14.4C156.852 14.4 157.747 15.2955 157.747 16.4V28C157.747 30.2092 155.956 32 153.747 32V32V16.4Z" fill="#020617"/>
<path d="M154.839 9.93996C154.8 9.78769 154.721 9.64873 154.609 9.53754C154.498 9.42635 154.359 9.34698 154.207 9.3077L151.508 8.61163C151.462 8.59856 151.421 8.57083 151.392 8.53263C151.363 8.49444 151.348 8.44787 151.348 8.4C151.348 8.35213 151.363 8.30556 151.392 8.26737C151.421 8.22917 151.462 8.20144 151.508 8.18837L154.207 7.49186C154.359 7.45262 154.498 7.37332 154.609 7.26221C154.72 7.15109 154.8 7.01222 154.839 6.86004L155.535 4.16071C155.548 4.11447 155.576 4.07374 155.614 4.04472C155.652 4.01571 155.699 4 155.747 4C155.795 4 155.842 4.01571 155.88 4.04472C155.918 4.07374 155.946 4.11447 155.959 4.16071L156.655 6.86004C156.694 7.01231 156.773 7.15127 156.884 7.26246C156.996 7.37365 157.135 7.45302 157.287 7.4923L159.986 8.18792C160.033 8.20073 160.074 8.22841 160.103 8.26672C160.132 8.30503 160.148 8.35185 160.148 8.4C160.148 8.44815 160.132 8.49497 160.103 8.53328C160.074 8.57159 160.033 8.59927 159.986 8.61207L157.287 9.3077C157.135 9.34698 156.996 9.42635 156.884 9.53754C156.773 9.64873 156.694 9.78769 156.655 9.93996L155.959 12.6393C155.946 12.6855 155.918 12.7263 155.88 12.7553C155.841 12.7843 155.795 12.8 155.747 12.8C155.699 12.8 155.652 12.7843 155.614 12.7553C155.575 12.7263 155.548 12.6855 155.535 12.6393L154.839 9.93996Z" fill="#020617"/>
<circle cx="116.9" cy="28" r="2.4" fill="#020617"/>
</svg>
